<svg xmlns="http://www.w3.org/2000/svg" width="19" height="19" fill="none" viewBox="0 0 19 19">
  <path fill="#fff" d="M1 1V.5H.5V1H1Zm9.646 10.354a.5.5 0 0 0 .708-.708l-.708.708ZM1.5 9V1h-1v8h1ZM1 1.5h8v-1H1v1Zm-.354-.146 10 10 .708-.708-10-10-.708.708Z"/>
  <path stroke="#fff" stroke-linecap="round" d="M2 13v0c0 1.87 0 2.804.402 3.5A3 3 0 0 0 3.5 17.598C4.196 18 5.13 18 7 18h5c2.828 0 4.243 0 5.121-.879C18 16.243 18 14.828 18 12V7c0-1.87 0-2.804-.402-3.5A3 3 0 0 0 16.5 2.402C15.804 2 14.87 2 13 2v0"/>
</svg>
