<svg xmlns="http://www.w3.org/2000/svg" width="16" height="16" fill="none" viewBox="0 0 16 16">
  <g clip-path="url(#a)">
    <path fill="#B1B1B1" fill-rule="evenodd" d="M.686 2.766h8.948A2.076 2.076 0 0 0 11.59 4.16c.902 0 1.668-.583 1.954-1.394H15.2a.688.688 0 0 0 .686-.686.688.688 0 0 0-.686-.686h-1.657A2.102 2.102 0 0 0 11.577 0c-.903 0-1.657.583-1.943 1.394H.686A.688.688 0 0 0 0 2.08c0 .377.309.686.686.686Zm0 11.84h8.948A2.062 2.062 0 0 0 11.577 16c.903 0 1.669-.582 1.954-1.394h1.658a.688.688 0 0 0 .685-.686.688.688 0 0 0-.685-.685H13.53a2.076 2.076 0 0 0-1.954-1.395c-.903 0-1.668.583-1.954 1.395H.686A.688.688 0 0 0 0 13.92c0 .377.309.686.686.686Zm5.36-7.292h9.143c.377 0 .685.308.685.686a.688.688 0 0 1-.685.685H6.046a2.061 2.061 0 0 1-1.943 1.395 2.076 2.076 0 0 1-1.954-1.395H.686A.688.688 0 0 1 0 8c0-.378.309-.686.686-.686h1.463A2.076 2.076 0 0 1 4.103 5.92c.903 0 1.657.583 1.943 1.394Z" clip-rule="evenodd"/>
  </g>
  <defs>
    <clipPath id="a">
      <path fill="#fff" d="M0 0h16v16H0z"/>
    </clipPath>
  </defs>
</svg>
