<svg xmlns="http://www.w3.org/2000/svg" width="24" height="24" fill="none" viewBox="0 0 24 24">
  <path fill="#fff" d="M12.02 14.88c.602 0 1.004-.365 1.004-.912v-.728c0-.73.3-1.368.904-1.642 1.507-.728 2.31-2.278 2.01-3.827-.303-1.457-1.608-2.643-3.216-2.917-1.205-.182-2.412.092-3.316.821C8.502 6.405 8 7.406 8 8.501c0 .545.402.912 1.005.912.603 0 1.005-.367 1.005-.912 0-.547.3-1.095.704-1.368.5-.365 1.104-.456 1.707-.365.803.091 1.507.73 1.608 1.46.2.727-.202 1.548-1.005 1.913-1.206.638-2.01 1.824-2.01 3.19v.637c0 .547.402.912 1.005.912Zm1.58 3.112c0-1.029-.731-1.672-1.608-1.672-.88 0-1.592.643-1.592 1.44 0 .797.712 1.44 1.592 1.44.877 0 1.589-.643 1.608-1.208ZM0 12C0 5.382 5.382 0 12 0s12 5.382 12 12-5.382 12-12 12S0 18.618 0 12Z"/>
</svg>
