<svg xmlns="http://www.w3.org/2000/svg" width="24" height="24" fill="none" viewBox="0 0 24 24">
  <path fill="#15D791" d="m11.632.336.272 10.822-3.68-2.924L11.631.336Z"/>
  <path fill="#0BC4A2" d="m12.115.31.448 10.817 3.481-3.078L12.115.31Z"/>
  <path fill="#15D791" d="m12.368 21.991-.134-10.823 3.644 2.954-3.51 7.869Z"/>
  <path fill="#0BC4A2" d="m12.036 21.99-.167-10.823-3.56 3.02 3.727 7.803ZM1.528 18.598l9.658-7.524-5.17-.015-4.488 7.539Zm20.9.197-9.27-7.833 5.165.154 4.105 7.679Z"/>
  <path fill="#7B7B7B" d="m2.562 22.175.29-4.004-1.122.982.832 3.022Zm18.541 0-.29-4.004 1.122.982-.832 3.022Zm-8.93 1.271-4.008-9.06.147 2.328 3.86 6.732Z"/>
  <path fill="#7B7B7B" d="m11.996 23.446 4.008-9.06-.148 2.328-3.86 6.732ZM3.07 17.863l4.699-2.65v-1.017l-4.7 3.667Zm17.76 0-4.699-2.65v-1.017l4.699 3.667Z"/>
</svg>
