<svg width="15" height="15" viewBox="0 0 15 15" fill="none" xmlns="http://www.w3.org/2000/svg">
<g id="Group">
<path id="Vector" d="M14.0351 5.13002C13.895 4.75621 13.4784 4.56675 13.1045 4.70677C12.7305 4.84689 12.5413 5.26346 12.6813 5.63738C14.2969 9.94883 10.2379 14.2207 5.87642 12.8828L5.95536 12.7095C6.18466 12.2055 5.78367 11.6368 5.22742 11.6906L3.31573 11.8761C2.76229 11.9298 2.47443 12.5642 2.79743 13.0158L3.91372 14.5785C4.23712 15.0312 4.92995 14.9631 5.15999 14.4576L5.27354 14.2079C10.8337 16.08 16.0949 10.627 14.0351 5.12998L14.0351 5.13002Z" fill="#CCCCCC"/>
<path id="Vector_2" d="M9.11209 2.27953L9.03315 2.45289C8.8029 2.95928 9.20808 3.52536 9.76109 3.47172L11.6726 3.28623C12.2237 3.2328 12.5155 2.60042 12.1911 2.14652L11.0746 0.583534C10.7514 0.131002 10.0583 0.198964 9.82831 0.704406L9.71444 0.954517C4.24315 -0.887735 -1.1366 4.45438 0.953413 10.0319C1.09352 10.4057 1.5101 10.5954 1.88401 10.4554C2.25782 10.3153 2.44728 9.89871 2.30726 9.52461C0.673504 5.16471 4.80082 0.957113 9.11211 2.27943L9.11209 2.27953Z" fill="#CCCCCC"/>
</g>
</svg>
