<svg xmlns="http://www.w3.org/2000/svg" width="24" height="20" fill="none" viewBox="0 0 24 20">
  <path fill="#fff" d="M7.533 19.714A13.93 13.93 0 0 1 0 17.516c1.847.12 5.107-.166 7.135-2.1-3.05-.14-4.426-2.48-4.606-3.48.26.1 1.496.22 2.193-.06C1.214 10.997.675 7.919.795 6.979c.658.46 1.774.62 2.213.58C-.262 5.218.915 1.7 1.493.94c2.346 3.25 5.862 5.076 10.213 5.177A5.024 5.024 0 0 1 11.58 5c0-2.762 2.232-5 4.984-5 1.438 0 2.734.61 3.644 1.588.96-.225 2.407-.752 3.114-1.208-.356 1.28-1.466 2.347-2.137 2.743.006.013-.005-.014 0 0 .59-.09 2.185-.396 2.815-.824-.312.72-1.488 1.914-2.453 2.584.18 7.921-5.881 14.831-14.014 14.831Z"/>
</svg>
