<svg xmlns="http://www.w3.org/2000/svg" width="24" height="24" fill="none" viewBox="0 0 24 24">
  <path fill="#B1B1B1" d="M12 0C5.307.053-.053 5.467 0 12.08.054 18.64 5.414 24 12 24h.08c3.2-.027 6.214-1.28 8.454-3.573 2.24-2.294 3.493-5.307 3.466-8.507C23.947 5.36 18.587 0 12 0Zm7.894 13.253H17.44a.78.78 0 0 1-.72-.506l-1.253-3.414-2.48 7.867c-.107.32-.373.533-.693.533h-.054a.764.764 0 0 1-.693-.453l-2.853-6.4-1.36 2.026a.75.75 0 0 1-.64.347H4a.774.774 0 0 1 0-1.546h2.267L8.16 8.853a.77.77 0 0 1 .72-.346c.294.026.534.186.64.453l2.587 5.84 2.587-8.133c.106-.32.4-.534.72-.534.346 0 .64.187.746.507l1.813 5.04h1.92c.427 0 .774.347.774.773 0 .427-.347.8-.773.8Z"/>
</svg>
