<svg xmlns="http://www.w3.org/2000/svg" width="20" height="20" fill="none" viewBox="0 0 20 20">
  <path fill="#fff" d="M10.016 12.4c.503 0 .837-.304.837-.76v-.607c0-.608.251-1.14.754-1.368 1.256-.606 1.925-1.898 1.674-3.189-.252-1.215-1.34-2.203-2.68-2.43-1.004-.153-2.009.075-2.762.683-.754.608-1.172 1.443-1.172 2.355 0 .455.334.76.837.76.503 0 .837-.305.837-.76 0-.456.251-.912.587-1.14.417-.304.92-.38 1.423-.304.669.076 1.256.608 1.34 1.216.166.607-.168 1.29-.838 1.595-1.005.532-1.674 1.52-1.674 2.658v.531c0 .456.334.76.837.76Zm1.317 2.593c0-.857-.609-1.393-1.34-1.393-.733 0-1.326.536-1.326 1.2 0 .664.593 1.2 1.326 1.2.731 0 1.324-.536 1.34-1.007ZM0 10C0 4.485 4.485 0 10 0s10 4.485 10 10-4.485 10-10 10S0 15.515 0 10Z"/>
</svg>
