<svg xmlns="http://www.w3.org/2000/svg" width="275" height="125" fill="none" viewBox="0 0 496 225" style="
    width: 275px;
    margin: 20px 0px;
">
  <path fill="#fff" fill-rule="evenodd" d="M243.709.062c-7.541.553-14.171 2.159-21.179 5.13-1.222.518-5.455 2.654-6.629 3.344-2.949 1.734-6.713 4.41-9.271 6.588-1.932 1.645-6.193 5.927-7.683 7.72-3.046 3.668-6.004 8.147-7.964 12.063-.328.656-.647 1.212-.708 1.235-.061.023-.11.109-.11.19s-.417 1.112-.927 2.29c-1.023 2.365-2.339 6.138-3.024 8.664-1.75 6.46-2.554 14.49-2.08 20.791.894 11.883 4.443 22.278 10.856 31.789 4.657 6.908 10.716 12.902 17.862 17.672 8.095 5.404 17.739 8.916 27.773 10.113 2.748.329 9.026.457 12.008.246a63.563 63.563 0 0 0 33.309-12.255c12.801-9.43 21.675-23.307 24.824-38.817.939-4.626 1.238-7.753 1.234-12.894-.003-3.751-.04-4.522-.34-7.086-1.358-11.607-5.536-22.153-12.398-31.299-4.351-5.799-10.205-11.305-16.045-15.092-3.413-2.214-5.12-3.162-8.462-4.7A63.435 63.435 0 0 0 252.948.11c-1.587-.118-7.829-.15-9.239-.047Zm9.859 10.782c4.793.512 9.81 1.76 14.305 3.557l1.477.59v1.155c.001 4.494-2.969 8.497-7.415 9.997l-1.195.403-14.203.08c-13.491.077-15.929.14-19.168.496-7.354.81-13.128 1.93-19.469 3.776-.927.27-1.765.49-1.863.49-.237 0 .092-.468 1.456-2.073 2.76-3.247 7.384-7.416 10.324-9.308.311-.2.594-.394.628-.43.035-.036.516-.355 1.069-.71a52.938 52.938 0 0 1 12.632-5.887c4.133-1.3 7.948-1.977 13.386-2.376 1.265-.093 6.332.058 8.036.24Zm26.715 10.629c2.677 2.04 7.67 6.743 7.67 7.225 0 .606-2.034 4.221-3.489 6.201-4.995 6.797-12.476 11.385-20.707 12.7-2.11.337-3.554.372-15.586.379-15.045.009-17.131.09-22.687.875-10.284 1.454-20.024 4.703-29.076 9.699-.749.413-1.395.719-1.434.679-.134-.134.356-3.762.786-5.825.458-2.192 1.219-5.007 1.788-6.61l.351-.99 1.255-.558c8.518-3.783 18.739-6.491 28.09-7.442 5.039-.512 5.711-.532 19.608-.587 8.111-.032 14.182-.106 14.784-.18.999-.124 2.897-.572 4.054-.958.32-.106 1.316-.548 2.215-.982 5.292-2.553 9.254-7.133 11.065-12.788.321-1.004.517-1.444.611-1.372.077.057.392.298.702.534Zm14.995 17.611c.946 1.627 2.52 5.43 3.471 8.387.777 2.417.834 2.707.598 3.067-.33.503-4.371 4.592-5.565 5.631-5.818 5.06-12.671 8.854-19.83 10.975-3.554 1.053-6.83 1.666-11.063 2.069-.685.065-7.161.126-14.392.135-15.598.02-16.546.061-21.882.942-9.462 1.562-19.172 5.7-27.008 11.512-.658.487-1.277.893-1.375.9-.208.015-.631-1.153-1.473-4.07-.604-2.09-1.477-6.261-1.416-6.76.03-.237.419-.546 1.798-1.427 8.063-5.153 16.824-8.674 26.018-10.459 2.558-.496 2.963-.557 5.97-.895 3.703-.417 4.934-.447 19.985-.489 13.811-.038 13.967-.045 17.66-.762 5.743-1.115 11.345-3.479 16.095-6.79 4.37-3.045 8.712-7.477 11.351-11.584.321-.5.62-.91.665-.911.045-.003.222.236.393.53Zm6.123 25.884c-.002 3.508-.681 8.411-1.713 12.375-.298 1.142-.379 1.313-.725 1.522-.214.13-.785.479-1.269.777-8.975 5.525-19.422 9.246-29.257 10.42-1.192.143-2.647.324-3.234.404-.725.1-5.917.175-16.152.237-8.295.05-15.253.122-15.46.16-.207.038-.914.135-1.571.214-7.495.909-15.312 4.264-21.268 9.128-.533.436-1.025.792-1.093.792-.362 0-4.135-4.606-5.763-7.036-.7-1.045-.854-1.356-.74-1.496.249-.307 3.357-2.65 4.668-3.52 4.618-3.063 9.549-5.364 14.643-6.833 2.969-.855 5.148-1.296 8.913-1.803 1.698-.229 4.166-.272 20.059-.349 11.624-.055 12.558-.092 16.403-.646 9.163-1.321 17.986-4.692 25.955-9.915 1.591-1.042 4.672-3.36 6.159-4.633.692-.592 1.299-1.078 1.351-1.081.052-.003.094.574.094 1.283ZM291.598 94.8c0 .121-1.633 2.253-2.818 3.679-1.281 1.541-4.948 5.203-6.474 6.466-8.523 7.051-18.294 11.146-29.296 12.277-2.256.233-8.273.195-10.482-.065-5.586-.657-10.456-1.911-15.284-3.935-1.135-.476-4.167-1.96-5.138-2.515-1.994-1.14-4.165-2.528-4.161-2.662.007-.257 3.553-2.498 5.413-3.421 2.858-1.419 5.373-2.227 9.023-2.901 1.422-.262 1.865-.272 16.293-.359 8.157-.049 15.086-.123 15.397-.164.311-.04 1.329-.135 2.263-.211 3.585-.292 8.556-1.123 12.341-2.064 1.983-.493 5.326-1.413 5.695-1.568a74.503 74.503 0 0 1 1.949-.684 84.5 84.5 0 0 0 3.393-1.258c1.81-.724 1.886-.748 1.886-.615Z" clip-rule="evenodd"></path>
  <path fill="#fff" d="M25.202 225h9.818l14.688-36.845V225h10.668v-55h-14.07L30.15 210.752 14.07 170H0v55h10.668v-36.539L25.202 225Zm106.817 0h12.601l-20.718-55h-12.833l-20.873 55h11.828l4.252-11.797h21.568L132.019 225Zm-14.843-42.284 7.421 21.219H109.6l7.576-21.219ZM186.324 225v-19.457h7.344L206.192 225h13.992l-14.301-21.219c7.885-2.604 12.523-8.502 12.523-15.933 0-11.413-8.117-17.848-22.109-17.848h-21.723v55h11.75Zm0-45.348h9.432c7.112 0 10.9 2.757 10.9 8.196 0 5.362-3.788 8.12-10.9 8.12h-9.432v-16.316ZM274.597 225v-44.506h17.548V170h-46.77v10.494h17.471V225h11.751Zm59.5 0v-55h-11.75v55h11.75Zm71.65 0h12.601l-20.718-55h-12.833l-20.873 55h11.828l4.252-11.797h21.569L405.747 225Zm-14.843-42.284 7.422 21.219h-14.998l7.576-21.219ZM484.481 225H496v-55h-10.823v36.462L460.98 170h-12.678v55h10.745v-38.377L484.481 225Z"></path>
</svg>