<svg xmlns="http://www.w3.org/2000/svg" width="100" height="19" fill="none" viewBox="0 0 669 128">
  <path fill="#fff" fill-rule="evenodd" d="M59.71.062c-7.542.553-14.172 2.159-21.18 5.13-1.222.518-5.455 2.654-6.63 3.344-2.948 1.734-6.712 4.41-9.27 6.588-1.932 1.645-6.193 5.927-7.683 7.72-3.046 3.668-6.004 8.147-7.964 12.063-.328.656-.647 1.212-.708 1.235-.06.023-.11.109-.11.19s-.417 1.112-.927 2.29c-1.023 2.365-2.34 6.138-3.024 8.664-1.75 6.46-2.554 14.49-2.08 20.791.894 11.883 4.443 22.278 10.856 31.789 4.657 6.908 10.716 12.902 17.862 17.672 8.095 5.404 17.74 8.916 27.773 10.113 2.748.329 9.026.457 12.008.246a63.56 63.56 0 0 0 33.309-12.255c12.801-9.43 21.675-23.307 24.824-38.817.939-4.626 1.238-7.753 1.234-12.894-.003-3.751-.04-4.522-.34-7.086-1.358-11.607-5.536-22.153-12.398-31.299-4.351-5.799-10.205-11.305-16.045-15.092-3.413-2.214-5.12-3.162-8.462-4.7A63.434 63.434 0 0 0 68.948.11c-1.587-.118-7.83-.15-9.239-.047Zm9.858 10.782c4.793.512 9.81 1.76 14.305 3.557l1.477.59v1.155c.001 4.494-2.968 8.497-7.415 9.997l-1.195.403-14.203.08c-13.49.077-15.929.14-19.168.496-7.355.81-13.128 1.93-19.47 3.776-.926.27-1.764.49-1.862.49-.237 0 .092-.468 1.456-2.073 2.76-3.247 7.384-7.416 10.324-9.308.31-.2.594-.394.628-.43.035-.036.516-.355 1.069-.71a52.938 52.938 0 0 1 12.632-5.887c4.133-1.3 7.948-1.977 13.386-2.376 1.265-.093 6.332.058 8.036.24Zm26.715 10.629c2.677 2.04 7.67 6.743 7.67 7.225 0 .606-2.034 4.221-3.489 6.201-4.995 6.797-12.476 11.385-20.707 12.7-2.11.337-3.554.372-15.586.379-15.046.009-17.131.09-22.687.875-10.284 1.454-20.024 4.703-29.077 9.699-.748.413-1.394.719-1.434.679-.134-.134.357-3.762.787-5.825.458-2.192 1.22-5.007 1.788-6.61l.351-.99 1.255-.558c8.518-3.783 18.739-6.491 28.09-7.442 5.04-.512 5.711-.532 19.608-.587 8.111-.032 14.182-.106 14.784-.18.999-.124 2.897-.572 4.054-.958.32-.106 1.316-.548 2.215-.982 5.292-2.553 9.254-7.133 11.065-12.788.321-1.004.517-1.444.611-1.372l.702.534Zm14.995 17.611c.946 1.627 2.52 5.43 3.471 8.387.777 2.417.834 2.707.598 3.067-.33.503-4.371 4.592-5.565 5.631-5.818 5.06-12.67 8.854-19.83 10.975-3.554 1.053-6.83 1.666-11.063 2.069-.685.065-7.161.126-14.392.135-15.598.02-16.546.061-21.882.942-9.462 1.562-19.172 5.7-27.008 11.512-.658.487-1.277.893-1.375.9-.208.015-.631-1.153-1.473-4.07-.604-2.09-1.477-6.261-1.416-6.76.03-.237.42-.546 1.798-1.427 8.063-5.153 16.824-8.674 26.018-10.459 2.558-.496 2.963-.557 5.97-.895 3.703-.417 4.934-.447 19.985-.489 13.811-.038 13.967-.045 17.66-.762 5.743-1.115 11.345-3.479 16.095-6.79 4.37-3.045 8.712-7.477 11.351-11.584.321-.5.62-.91.665-.911.045-.003.222.236.393.53Zm6.123 25.884c-.002 3.508-.681 8.411-1.713 12.375-.298 1.142-.379 1.313-.725 1.522-.214.13-.785.479-1.269.777-8.975 5.525-19.422 9.246-29.257 10.42-1.191.143-2.647.324-3.234.404-.725.1-5.917.175-16.152.237-8.296.05-15.253.122-15.46.16-.207.038-.914.135-1.571.214-7.495.909-15.312 4.264-21.268 9.128-.533.436-1.025.792-1.093.792-.362 0-4.135-4.606-5.763-7.036-.7-1.045-.854-1.356-.74-1.496.249-.307 3.357-2.65 4.668-3.52 4.618-3.063 9.549-5.364 14.643-6.833 2.969-.855 5.148-1.296 8.913-1.803 1.698-.229 4.166-.272 20.06-.349 11.623-.055 12.557-.092 16.402-.646 9.163-1.321 17.986-4.692 25.955-9.915 1.591-1.042 4.672-3.36 6.159-4.633.692-.592 1.299-1.078 1.351-1.081.052-.003.094.574.094 1.283ZM107.598 94.8c0 .121-1.633 2.253-2.818 3.679-1.281 1.541-4.948 5.203-6.474 6.466-8.523 7.051-18.294 11.146-29.296 12.277-2.256.233-8.273.195-10.482-.065-5.586-.657-10.456-1.911-15.284-3.935-1.135-.476-4.167-1.96-5.138-2.515-1.994-1.14-4.165-2.528-4.162-2.662.008-.257 3.554-2.498 5.414-3.421 2.858-1.419 5.373-2.227 9.023-2.901 1.422-.262 1.865-.272 16.293-.359 8.157-.049 15.086-.123 15.397-.164.311-.04 1.33-.135 2.263-.211 3.585-.292 8.556-1.123 12.34-2.064 1.984-.493 5.327-1.413 5.696-1.568a74.503 74.503 0 0 1 1.949-.684 84.5 84.5 0 0 0 3.393-1.258c1.81-.724 1.886-.748 1.886-.615Z" clip-rule="evenodd"/>
  <path fill="#fff" d="M198.202 91h9.818l14.688-36.845V91h10.668V36h-14.069L203.15 76.752 187.07 36H173v55h10.668V54.461L198.202 91Zm106.817 0h12.601l-20.718-55h-12.833l-20.873 55h11.828l4.252-11.797h21.568L305.019 91Zm-14.843-42.284 7.421 21.218H282.6l7.576-21.218ZM359.324 91V71.543h7.344L379.192 91h13.992l-14.301-21.219c7.885-2.604 12.523-8.502 12.523-15.933 0-11.413-8.117-17.848-22.109-17.848h-21.723v55h11.75Zm0-45.348h9.432c7.112 0 10.9 2.758 10.9 8.196 0 5.362-3.788 8.12-10.9 8.12h-9.432V45.652ZM447.597 91V46.494h17.548V36h-46.77v10.494h17.471V91h11.751Zm59.5 0V36h-11.75v55h11.75Zm71.65 0h12.601L570.63 36h-12.833l-20.873 55h11.828l4.252-11.797h21.569L578.747 91Zm-14.843-42.284 7.422 21.218h-14.998l7.576-21.218ZM657.481 91H669V36h-10.823v36.462L633.98 36h-12.678v55h10.745V52.623L657.481 91Z"/>
</svg>
