<svg xmlns="http://www.w3.org/2000/svg" width="16" height="16" fill="none" viewBox="0 0 16 16">
    <path fill="#000" d="M6.434 0H.724A.719.719 0 0 0 0 .724v5.71c0 .404.32.724.724.724h5.71c.404 0 .724-.32.724-.724V.724A.719.719 0 0 0 6.434 0Zm8.842 0h-5.71a.719.719 0 0 0-.724.724v5.71c0 .404.32.724.724.724h5.71c.404 0 .724-.32.724-.724V.724A.719.719 0 0 0 15.276 0ZM6.434 8.842H.724A.719.719 0 0 0 0 9.566v5.71c0 .404.32.724.724.724h5.71c.404 0 .724-.32.724-.724v-5.71a.719.719 0 0 0-.724-.724Zm8.842 0h-5.71a.719.719 0 0 0-.724.724v5.71c0 .404.32.724.724.724h5.71c.404 0 .724-.32.724-.724v-5.71a.719.719 0 0 0-.724-.724Z" />
</svg>