<svg xmlns="http://www.w3.org/2000/svg" width="11" height="15" fill="none" viewBox="0 0 11 15">
  <path fill="#1C1C1C" d="M9.629 6.053h-6.65V3.631c0-.797.429-1.534 1.124-1.932a2.26 2.26 0 0 1 2.246 0A2.229 2.229 0 0 1 7.473 3.63a.597.597 0 0 0 .602.633.604.604 0 0 0 .601-.633 3.42 3.42 0 0 0-.937-2.554A3.467 3.467 0 0 0 5.226 0c-.951 0-1.86.39-2.513 1.077a3.42 3.42 0 0 0-.937 2.554v2.422H.843a.844.844 0 0 0-.596.244A.833.833 0 0 0 0 6.89v7.274c0 .222.089.435.247.592A.846.846 0 0 0 .843 15h8.786a.846.846 0 0 0 .596-.245.834.834 0 0 0 .247-.592V6.889a.832.832 0 0 0-.247-.592.844.844 0 0 0-.596-.244Zm-3.78 4.68v.954c0 .221-.12.425-.312.535a.626.626 0 0 1-.622 0 .617.617 0 0 1-.311-.535v-.953A1.09 1.09 0 0 1 4.4 9.106a1.105 1.105 0 0 1 1.652 0 1.09 1.09 0 0 1-.204 1.628Z"/>
</svg>
