<svg width="316" height="231" viewBox="0 0 316 231" fill="none" xmlns="http://www.w3.org/2000/svg">
<path d="M155.015 1.73321L156.42 57.5682L137.428 42.482L155.015 1.73321Z" fill="#15D791"/>
<path d="M157.509 1.60044L159.817 57.4121L177.782 41.5282L157.509 1.60044Z" fill="#0BC4A2"/>
<path d="M158.813 113.463L158.124 57.6193L176.922 72.8625L158.813 113.463Z" fill="#15D791"/>
<path d="M157.1 113.458L156.241 57.6193L137.868 73.1972L157.1 113.458Z" fill="#0BC4A2"/>
<path d="M102.882 95.9539L152.713 57.1367L126.041 57.0581L102.882 95.9539Z" fill="#0BC4A2"/>
<path d="M210.72 96.9723L162.885 56.5578L189.54 57.3514L210.72 96.9723Z" fill="#0BC4A2"/>
<path d="M108.221 114.41L109.717 93.7534L103.926 98.8177L108.221 114.41Z" fill="#7B7B7B"/>
<path d="M203.881 114.41L202.384 93.7534L208.176 98.8177L203.881 114.41Z" fill="#7B7B7B"/>
<path d="M157.805 120.968L137.125 74.2214L137.888 86.2323L157.805 120.968Z" fill="#7B7B7B"/>
<path d="M156.892 120.968L177.572 74.2214L176.809 86.2323L156.892 120.968Z" fill="#7B7B7B"/>
<path d="M110.839 92.1658L135.084 78.4934L135.084 73.2448L110.839 92.1658Z" fill="#7B7B7B"/>
<path d="M202.473 92.1658L178.229 78.4934L178.229 73.2448L202.473 92.1658Z" fill="#7B7B7B"/>
<path d="M54.6341 156.7V191H51.1551V163.56L37.6801 186.639H35.9651L22.4901 163.707V191H19.0111V156.7H22.0001L36.8961 182.131L51.6451 156.7H54.6341ZM96.386 181.837H77.276L73.16 191H69.387L85.067 156.7H88.644L104.324 191H100.502L96.386 181.837ZM95.063 178.897L86.831 160.473L78.599 178.897H95.063ZM142.485 191L134.645 179.975C133.763 180.073 132.848 180.122 131.901 180.122H122.689V191H119.063V156.7H131.901C136.278 156.7 139.708 157.745 142.191 159.836C144.674 161.927 145.915 164.801 145.915 168.46C145.915 171.139 145.229 173.409 143.857 175.271C142.518 177.1 140.59 178.423 138.075 179.24L146.454 191H142.485ZM131.803 177.035C135.2 177.035 137.797 176.284 139.594 174.781C141.391 173.278 142.289 171.171 142.289 168.46C142.289 165.683 141.391 163.56 139.594 162.09C137.797 160.587 135.2 159.836 131.803 159.836H122.689V177.035H131.803ZM169.724 159.836H157.67V156.7H185.404V159.836H173.35V191H169.724V159.836ZM200.261 156.7H203.887V191H200.261V156.7ZM245.623 181.837H226.513L222.397 191H218.624L234.304 156.7H237.881L253.561 191H249.739L245.623 181.837ZM244.3 178.897L236.068 160.473L227.836 178.897H244.3ZM296.966 156.7V191H293.977L271.927 163.168V191H268.301V156.7H271.29L293.389 184.532V156.7H296.966Z" fill="#15D791"/>
</svg>
