<svg xmlns="http://www.w3.org/2000/svg" width="22" height="20" fill="none" viewBox="0 0 22 20">
  <path fill="#fff" d="m1 10-.39-.312L.36 10l.25.312L1 10Zm9 .5a.5.5 0 0 0 0-1v1ZM4.61 4.688l-4 5 .78.624 4-5-.78-.624Zm-4 5.624 4 5 .78-.624-4-5-.78.624ZM1 10.5h9v-1H1v1Zm11.342 8.057.083-.493-.083.493Zm7.597.19.323.382-.323-.381ZM14.014 1.165 13.93.671l.083.493Zm5.925.088.323-.381-.323.381Zm-7.514.684 1.67-.278-.164-.987-1.67.279.164.986ZM20.5 7.083v5.834h1V7.083h-1Zm-6.404 11.26-1.671-.28-.165.987 1.671.279.165-.987ZM9.5 6.131v-.743h-1v.743h1Zm0 8.48v-.546h-1v.545h1Zm2.925 3.452c-.811-.135-1.373-.23-1.795-.355-.408-.122-.624-.256-.775-.434l-.763.647c.324.381.744.594 1.253.745.495.147 1.13.252 1.915.383l.165-.986ZM8.5 14.61c0 .797 0 1.44.063 1.953.066.526.206.976.53 1.358l.762-.647c-.15-.177-.247-.412-.3-.835-.054-.436-.055-1.007-.055-1.829h-1Zm12-1.694c0 1.66-.001 2.85-.128 3.741-.124.877-.359 1.372-.756 1.708l.646.763c.664-.562.96-1.339 1.1-2.33.14-.978.138-2.253.138-3.882h-1Zm-6.569 6.412c1.607.267 2.865.478 3.852.502 1 .024 1.816-.14 2.48-.702l-.647-.763c-.397.337-.924.487-1.81.465-.899-.021-2.074-.216-3.71-.489l-.165.987Zm.165-17.671c1.636-.273 2.811-.468 3.71-.49.886-.02 1.413.13 1.81.466l.646-.763C19.6.309 18.784.145 17.782.169c-.986.024-2.244.234-3.85.502l.164.987ZM21.5 7.083c0-1.629.001-2.904-.138-3.882-.14-.991-.436-1.768-1.1-2.33l-.646.763c.397.336.632.83.756 1.708.127.89.128 2.082.128 3.74h1ZM12.26.95c-.785.13-1.42.236-1.915.383-.509.151-.93.363-1.253.745l.763.647c.15-.178.367-.312.775-.434.421-.125.984-.22 1.795-.355L12.26.95ZM9.5 5.389c0-.823 0-1.393.055-1.83.053-.422.15-.657.3-.834l-.763-.647c-.323.382-.463.831-.529 1.358C8.5 3.949 8.5 4.592 8.5 5.389h1Z"/>
</svg>
