<svg width="196" height="64" viewBox="0 0 196 64" fill="none" xmlns="http://www.w3.org/2000/svg">
<path d="M26.6564 0.777821L27.2805 25.8348L18.8449 19.0646L26.6564 0.777821Z" fill="#0BC4A2"/>
<path d="M27.7642 0.718226L28.7894 25.7647L36.7685 18.6365L27.7642 0.718226Z" fill="#15D791"/>
<path d="M28.3435 50.9186L28.0372 25.8577L36.3865 32.6984L28.3435 50.9186Z" fill="#0BC4A2"/>
<path d="M27.5826 50.9162L27.2007 25.8577L19.0403 32.8486L27.5826 50.9162Z" fill="#15D791"/>
<path d="M3.50096 43.0611L25.6341 25.6411L13.787 25.6059L3.50096 43.0611Z" fill="#15D791"/>
<path d="M51.3982 43.5181L30.1519 25.3813L41.991 25.7375L51.3982 43.5181Z" fill="#15D791"/>
<path d="M5.87214 51.3435L6.53677 42.0735L3.96436 44.3462L5.87214 51.3435Z" fill="#7B7B7B"/>
<path d="M48.3606 51.3435L47.696 42.0735L50.2684 44.3462L48.3606 51.3435Z" fill="#7B7B7B"/>
<path d="M27.8956 54.2865L18.7105 33.3082L19.0491 38.6983L27.8956 54.2865Z" fill="#7B7B7B"/>
<path d="M27.4899 54.2865L36.6751 33.3082L36.3364 38.6983L27.4899 54.2865Z" fill="#7B7B7B"/>
<path d="M7.03507 41.3611L17.8036 35.2253L17.8036 32.8699L7.03507 41.3611Z" fill="#7B7B7B"/>
<path d="M47.7354 41.3611L36.9669 35.2253L36.9669 32.8699L47.7354 41.3611Z" fill="#7B7B7B"/>
<path d="M80.3248 23.1234V39H78.7144V26.2987L72.4772 36.9814H71.6834L65.4461 26.3668V39H63.8358V23.1234H65.2193L72.1143 34.8948L78.9412 23.1234H80.3248ZM99.6506 34.7587H90.8051L88.8999 39H87.1535L94.4114 23.1234H96.0671L103.325 39H101.556L99.6506 34.7587ZM99.0383 33.3978L95.2279 24.8698L91.4175 33.3978H99.0383ZM120.989 39L117.36 33.8968C116.952 33.9422 116.528 33.9649 116.09 33.9649H111.826V39H110.147V23.1234H116.09C118.116 23.1234 119.703 23.6073 120.853 24.575C122.002 25.5427 122.576 26.8733 122.576 28.5668C122.576 29.8067 122.259 30.8576 121.624 31.7194C121.004 32.5662 120.112 33.1786 118.947 33.5566L122.826 39H120.989ZM116.044 32.536C117.617 32.536 118.819 32.1882 119.651 31.4926C120.482 30.7971 120.898 29.8218 120.898 28.5668C120.898 27.2816 120.482 26.2987 119.651 25.6183C118.819 24.9228 117.617 24.575 116.044 24.575H111.826V32.536H116.044ZM133.597 24.575H128.017V23.1234H140.855V24.575H135.275V39H133.597V24.575ZM147.732 23.1234H149.41V39H147.732V23.1234ZM168.729 34.7587H159.883L157.978 39H156.232L163.49 23.1234H165.145L172.403 39H170.634L168.729 34.7587ZM168.117 33.3978L164.306 24.8698L160.496 33.3978H168.117ZM192.494 23.1234V39H191.11L180.904 26.1173V39H179.226V23.1234H180.609L190.838 36.0061V23.1234H192.494Z" fill="#15D791"/>
</svg>
