<svg width="68" height="16" viewBox="0 0 68 16" fill="none" xmlns="http://www.w3.org/2000/svg">
<path d="M2.41598 16H0.213829V0.595703H1.30953C2.02568 0.595703 2.78479 0.688802 3.58688 0.875C4.39612 1.0612 5.21969 1.32975 6.05758 1.68066C6.89547 2.03158 7.72978 2.45768 8.56051 2.95898C9.3984 3.45312 10.2076 4.0153 10.9882 4.64551C11.7688 5.27572 12.5029 5.96322 13.1904 6.70801C13.8779 7.44564 14.4938 8.2334 15.038 9.07129V0.595703H17.2402V16H15.038C15.038 14.8685 14.8411 13.7799 14.4472 12.7344C14.0533 11.6816 13.527 10.6898 12.8681 9.75879C12.2093 8.8278 11.4502 7.97201 10.5908 7.19141C9.73141 6.40365 8.83264 5.71257 7.89449 5.11816C6.9635 4.52376 6.02535 4.03678 5.08004 3.65723C4.13473 3.27051 3.24671 3.0127 2.41598 2.88379V16ZM36.7884 2.79785H23.0384V16H20.8363V0.595703H36.7884V2.79785ZM34.8978 9.4043H24.1341V7.20215H34.8978V9.4043ZM47.2595 16H45.0573V2.79785H37.2692V0.595703H55.0475V2.79785H47.2595V16ZM67.9571 12.1543C67.9571 12.6842 67.8568 13.1855 67.6563 13.6582C67.4558 14.1237 67.1801 14.5319 66.8291 14.8828C66.4854 15.2266 66.0772 15.4987 65.6045 15.6992C65.139 15.8997 64.6413 16 64.1114 16H54.7549V13.7979H64.1114C64.3334 13.7979 64.5446 13.7549 64.7452 13.6689C64.9457 13.583 65.1211 13.4648 65.2715 13.3145C65.4219 13.1641 65.5401 12.9922 65.626 12.7988C65.712 12.5983 65.7549 12.3835 65.7549 12.1543C65.7549 11.9323 65.712 11.721 65.626 11.5205C65.5401 11.32 65.4219 11.1445 65.2715 10.9941C65.1211 10.8438 64.9457 10.7256 64.7452 10.6396C64.5446 10.5465 64.3334 10.5 64.1114 10.5H58.0528C57.5944 10.5 57.1648 10.4141 56.7637 10.2422C56.3627 10.0703 56.0118 9.83757 55.711 9.54395C55.4174 9.24316 55.1846 8.89225 55.0127 8.49121C54.8409 8.09017 54.7549 7.66048 54.7549 7.20215C54.7549 6.74382 54.8409 6.31413 55.0127 5.91309C55.1846 5.51204 55.4174 5.16471 55.711 4.87109C56.0118 4.57031 56.3627 4.33398 56.7637 4.16211C57.1648 3.99023 57.5944 3.9043 58.0528 3.9043H66.8614V6.0957H58.0528C57.7448 6.0957 57.4834 6.20312 57.2686 6.41797C57.0609 6.62565 56.9571 6.88704 56.9571 7.20215C56.9571 7.51009 57.0609 7.77148 57.2686 7.98633C57.4834 8.19401 57.7448 8.29785 58.0528 8.29785H64.1114C64.6413 8.29785 65.139 8.39811 65.6045 8.59863C66.0772 8.79915 66.4854 9.07487 66.8291 9.42578C67.1801 9.77669 67.4558 10.1849 67.6563 10.6504C67.8568 11.1159 67.9571 11.6172 67.9571 12.1543Z" fill="white"/>
</svg>
