<svg xmlns="http://www.w3.org/2000/svg" width="14" height="14" fill="none" viewBox="0 0 14 14">
  <path fill="#1C1C1C" d="M14 10.17v3.099a.723.723 0 0 1-.022.172.665.665 0 0 1-.648.533H.666a.663.663 0 0 1-.657-.59C0 13.343 0 13.307 0 13.263v-3.099a.663.663 0 0 1 1.128-.467c.12.119.194.286.194.467v2.482h11.36v-2.482a.663.663 0 0 1 1.128-.467.7.7 0 0 1 .19.472Z"/>
  <path fill="#1C1C1C" d="m10.813 7.066-3.249 3.249c-.004.009-.013.013-.017.017a.766.766 0 0 1-.428.216c-.013 0-.026.005-.04.005a.523.523 0 0 1-.079.004l-.075-.004c-.013 0-.026-.005-.04-.005a.75.75 0 0 1-.427-.216l-.018-.017-3.249-3.249a.77.77 0 0 1-.224-.547.77.77 0 0 1 1.318-.546l1.952 1.953V.77c0-.423.349-.771.772-.771.211 0 .405.088.546.225A.76.76 0 0 1 7.78.77v7.155l1.953-1.953c.3-.3.789-.3 1.093 0a.79.79 0 0 1-.013 1.093Z"/>
</svg>
