<svg xmlns="http://www.w3.org/2000/svg" width="24" height="24" fill="none" viewBox="0 0 24 24">
  <path fill="url(#a)" d="M20.914 13.166A8.68 8.68 0 0 0 21 12c0-.394-.034-.789-.086-1.183l2.537-1.988a.606.606 0 0 0 .137-.772l-2.4-4.148a.607.607 0 0 0-.737-.258l-2.983 1.2a8.81 8.81 0 0 0-2.022-1.182L15 .497A.624.624 0 0 0 14.4 0H9.6a.622.622 0 0 0-.6.514l-.446 3.172a9.194 9.194 0 0 0-2.023 1.183l-2.983-1.2a.607.607 0 0 0-.737.257l-2.4 4.148a.606.606 0 0 0 .137.772l2.538 1.988A8.675 8.675 0 0 0 3 12c0 .394.034.789.086 1.183L.548 15.17a.606.606 0 0 0-.137.772l2.4 4.148c.155.258.463.36.737.258l2.983-1.2c.617.48 1.286.874 2.023 1.182L9 23.503a.624.624 0 0 0 .6.497h4.8a.622.622 0 0 0 .6-.514l.446-3.172a9.197 9.197 0 0 0 2.022-1.183l2.983 1.2c.275.103.583 0 .738-.257l2.4-4.148a.606.606 0 0 0-.138-.772l-2.537-1.988ZM12 15.429A3.439 3.439 0 0 1 8.57 12 3.439 3.439 0 0 1 12 8.571 3.439 3.439 0 0 1 15.428 12 3.439 3.439 0 0 1 12 15.429Z"/>
  <defs>
    <linearGradient id="a" x1="23.672" x2=".328" y1="12" y2="12" gradientUnits="userSpaceOnUse">
      <stop stop-color="#35F46B"/>
      <stop offset="1" stop-color="#09F0E2"/>
    </linearGradient>
  </defs>
</svg>
