<svg xmlns="http://www.w3.org/2000/svg" width="24" height="20" fill="none" viewBox="0 0 24 20">
  <path fill="url(#a)" d="M1.8 0C1.125 0 .6.525.6 1.2c0 .675.525 1.2 1.2 1.2h18.6V0H1.8ZM0 2.785V18.3c0 .831.67 1.5 1.5 1.5h21c.831 0 1.5-.669 1.5-1.5v-2.7h-9.3c-.82 0-1.5-.68-1.5-1.5V9.3c0-.82.68-1.5 1.5-1.5H24V5.1c0-.83-.669-1.5-1.5-1.5L1.519 3.582A2.398 2.398 0 0 1 0 2.785ZM14.7 9c-.177 0-.3.124-.3.3v4.8c0 .177.123.3.3.3H24V9h-9.3Zm3 1.8a.9.9 0 1 1 0 1.8.9.9 0 0 1 0-1.8Z"/>
  <defs>
    <linearGradient id="a" x1="24" x2="0" y1="9.9" y2="9.9" gradientUnits="userSpaceOnUse">
      <stop stop-color="#35F46B"/>
      <stop offset="1" stop-color="#09F0E2"/>
    </linearGradient>
  </defs>
</svg>
