<svg xmlns="http://www.w3.org/2000/svg" width="24" height="24" fill="none" viewBox="0 0 24 24">
  <path fill="url(#a)" d="M12 0C5.305.053-.055 5.467 0 12.08.052 18.64 5.412 24 12 24h.08c3.2-.027 6.213-1.28 8.453-3.573 2.24-2.294 3.493-5.307 3.466-8.507C23.946 5.36 18.586 0 12 0Zm7.893 13.253h-2.454a.78.78 0 0 1-.72-.506l-1.253-3.414-2.48 7.867c-.107.32-.373.533-.693.533h-.054a.764.764 0 0 1-.693-.453l-2.854-6.4-1.36 2.026a.75.75 0 0 1-.64.347H4a.774.774 0 0 1 0-1.546h2.267L8.16 8.853a.77.77 0 0 1 .72-.346c.294.026.534.186.64.453l2.587 5.84 2.586-8.133a.77.77 0 0 1 .72-.534c.347 0 .64.187.747.507l1.813 5.04h1.92c.427 0 .774.347.774.773 0 .427-.347.8-.774.8Z"/>
  <defs>
    <linearGradient id="a" x1="24" x2="-.001" y1="12" y2="12" gradientUnits="userSpaceOnUse">
      <stop stop-color="#35F46B"/>
      <stop offset="1" stop-color="#09F0E2"/>
    </linearGradient>
  </defs>
</svg>
