<svg width="24" height="24" viewBox="0 0 24 24" fill="none" xmlns="http://www.w3.org/2000/svg">
<path fill-rule="evenodd" clip-rule="evenodd" d="M11.1955 0.0116629C9.78148 0.115274 8.53832 0.416378 7.22442 0.973449C6.99521 1.07063 6.20149 1.47103 5.9814 1.60049C5.42856 1.92569 4.72272 2.42726 4.24318 2.83567C3.8809 3.14422 3.08198 3.94713 2.80264 4.28336C2.23144 4.97092 1.6769 5.81081 1.30937 6.545C1.24775 6.66809 1.188 6.77234 1.1766 6.77665C1.16521 6.78099 1.15588 6.79698 1.15588 6.8122C1.15588 6.82744 1.07771 7.0207 0.982144 7.24168C0.790402 7.68505 0.543489 8.39247 0.415142 8.86605C0.086946 10.0772 -0.0637188 11.5832 0.0251293 12.7645C0.192668 14.9925 0.858252 16.9415 2.06058 18.7249C2.93374 20.0201 4.06979 21.144 5.40975 22.0385C6.92752 23.0516 8.73585 23.7101 10.6172 23.9347C11.1325 23.9962 12.3096 24.0202 12.8688 23.9807C15.1343 23.8205 17.2878 23.0281 19.1141 21.6828C21.5143 19.9148 23.1782 17.3129 23.7685 14.4048C23.9446 13.5373 24.0008 12.951 24 11.9871C23.9994 11.2837 23.9925 11.1391 23.9363 10.6584C23.6816 8.48214 22.8983 6.50474 21.6116 4.78987C20.7958 3.70259 19.6983 2.67027 18.6033 1.96007C17.9632 1.54494 17.6432 1.36723 17.0166 1.07894C15.7232 0.483874 14.3411 0.126111 12.9277 0.0205209C12.6301 -0.00171853 11.4598 -0.00770244 11.1955 0.0116629ZM13.044 2.03329C13.9426 2.12922 14.8834 2.36313 15.7262 2.70021L16.0031 2.81094L16.0031 3.02732C16.0033 3.86997 15.4465 4.62063 14.6127 4.90185L14.3888 4.97735L11.7257 4.99241C9.19622 5.00673 8.73906 5.01856 8.13176 5.08542C6.75273 5.23723 5.67017 5.44718 4.48118 5.79338C4.30749 5.84396 4.15032 5.88535 4.13196 5.88535C4.08752 5.88535 4.14917 5.79757 4.40497 5.49663C4.92243 4.88785 5.78944 4.1061 6.34065 3.75131C6.39898 3.71378 6.45201 3.6775 6.45849 3.67069C6.46497 3.6639 6.55512 3.60404 6.65881 3.53768C7.38913 3.07022 8.18995 2.69696 9.02731 2.43371C9.80229 2.19009 10.5176 2.06311 11.5372 1.98817C11.7744 1.97074 12.7246 1.99917 13.044 2.03329ZM18.0531 4.02614C18.555 4.40864 19.4911 5.2905 19.4911 5.38082C19.4911 5.49454 19.1098 6.17239 18.837 6.54356C17.9004 7.81799 16.4977 8.67827 14.9544 8.92474C14.5589 8.98792 14.2881 8.9945 12.0321 8.99586C9.21104 8.99753 8.81992 9.01264 7.77825 9.15995C5.84999 9.43264 4.02367 10.0418 2.32641 10.9785C2.186 11.056 2.06501 11.1133 2.05754 11.1058C2.03241 11.0807 2.1243 10.4004 2.20507 10.0136C2.2909 9.60255 2.43362 9.07478 2.54026 8.77415L2.60611 8.58853L2.84136 8.48402C4.43846 7.77465 6.35489 7.26691 8.10819 7.08866C9.05309 6.99259 9.17911 6.98882 11.7847 6.97855C13.3056 6.97257 14.4439 6.95867 14.5567 6.94467C14.744 6.92149 15.1 6.83748 15.317 6.76525C15.3768 6.74532 15.5637 6.66249 15.7322 6.58116C16.7245 6.10228 17.4673 5.24371 17.8069 4.18321C17.8671 3.99505 17.9038 3.91266 17.9215 3.92602C17.9358 3.93681 17.995 3.98188 18.0531 4.02614ZM20.8646 7.32833C21.042 7.63329 21.337 8.34625 21.5155 8.90087C21.6612 9.35395 21.6718 9.40833 21.6276 9.47582C21.5658 9.57015 20.808 10.3368 20.5841 10.5317C19.4933 11.4806 18.2084 12.1918 16.866 12.5895C16.1997 12.787 15.5854 12.9018 14.7917 12.9774C14.6633 12.9897 13.449 13.0011 12.0933 13.0028C9.16855 13.0065 8.99085 13.0142 7.99036 13.1794C6.21624 13.4722 4.39563 14.2482 2.92627 15.3378C2.80294 15.4293 2.68692 15.5052 2.66844 15.5066C2.62949 15.5095 2.55016 15.2903 2.39224 14.7434C2.27912 14.3518 2.11535 13.5696 2.1269 13.4761C2.13239 13.4316 2.2054 13.3736 2.46386 13.2084C3.97583 12.2423 5.61837 11.582 7.34226 11.2474C7.82187 11.1543 7.89788 11.1429 8.4617 11.0795C9.15608 11.0014 9.38685 10.9957 12.2089 10.9879C14.7985 10.9808 14.8277 10.9795 15.5201 10.845C16.5969 10.6359 17.6472 10.1928 18.538 9.57194C19.3572 9.001 20.1715 8.16994 20.6663 7.39978C20.7264 7.30627 20.7825 7.2294 20.791 7.22898C20.7995 7.22855 20.8326 7.27327 20.8646 7.32833ZM22.0127 12.1814C22.0123 12.8392 21.885 13.7587 21.6915 14.5017C21.6357 14.7159 21.6204 14.7479 21.5556 14.7871C21.5154 14.8114 21.4083 14.877 21.3176 14.9328C19.6347 15.9688 17.676 16.6664 15.8319 16.8867C15.6085 16.9134 15.3356 16.9475 15.2255 16.9625C15.0895 16.981 14.1162 16.9952 12.1971 17.0068C10.6417 17.0162 9.33722 17.0297 9.29833 17.0369C9.25945 17.044 9.12688 17.0621 9.00374 17.077C7.59848 17.2474 6.13284 17.8764 5.01592 18.7885C4.916 18.8701 4.82385 18.9369 4.81115 18.9369C4.7432 18.9369 4.03583 18.0733 3.73045 17.6176C3.59921 17.4217 3.57031 17.3633 3.59169 17.3371C3.63842 17.2797 4.22124 16.8404 4.46707 16.6773C5.33292 16.1028 6.25739 15.6714 7.21264 15.3961C7.76922 15.2356 8.1779 15.1529 8.88374 15.0579C9.20206 15.015 9.66485 15.007 12.6449 14.9926C14.8242 14.9821 14.9994 14.9752 15.7204 14.8713C17.4384 14.6236 19.0928 13.9917 20.587 13.0123C20.8852 12.8169 21.4629 12.3823 21.7418 12.1435C21.8714 12.0326 21.9854 11.9414 21.9951 11.9409C22.0049 11.9404 22.0127 12.0486 22.0127 12.1814ZM20.1746 17.7752C20.1746 17.798 19.8685 18.1976 19.6462 18.465C19.406 18.754 18.7185 19.4406 18.4323 19.6773C16.8342 20.9995 15.0022 21.7673 12.9395 21.9794C12.5164 22.0229 11.3881 22.0159 10.974 21.9671C9.9267 21.8439 9.01343 21.6087 8.10819 21.2293C7.8954 21.1401 7.32685 20.8618 7.14488 20.7578C6.77097 20.5441 6.36394 20.2837 6.3646 20.2586C6.36592 20.2105 7.03084 19.7902 7.37959 19.6171C7.91548 19.3512 8.38706 19.1996 9.07147 19.0733C9.33802 19.0241 9.42116 19.0223 12.1264 19.0059C13.6559 18.9967 14.955 18.9829 15.0134 18.9753C15.0717 18.9677 15.2626 18.9498 15.4376 18.9356C16.1099 18.8809 17.0418 18.725 17.7515 18.5486C18.1233 18.4561 18.7502 18.2836 18.8195 18.2547C18.8454 18.2439 19.0098 18.1862 19.1848 18.1265C19.3597 18.0668 19.6461 17.9606 19.8211 17.8906C20.1604 17.7548 20.1746 17.7502 20.1746 17.7752Z" fill="white"/>
</svg>
